<svg width="57" height="50" viewBox="0 0 57 50" fill="none" xmlns="http://www.w3.org/2000/svg">
<rect x="46.7734" y="19.8916" width="10.2151" height="10.2151" rx="4" fill="white"/>
<path d="M18.8174 19.3566L51.6131 2.15234V47.8513L18.8174 31.7222V19.3566Z" fill="white"/>
<rect y="19.8916" width="12.9032" height="10.2151" rx="4" fill="#C4C4C4"/>
<path d="M9.67773 32.4961C9.67773 30.287 11.4686 28.4961 13.6777 28.4961H15.8631C18.6198 28.4961 20.5502 31.2192 19.6375 33.8204L16.05 44.045C15.589 45.3587 14.3486 46.238 12.9563 46.238C11.1456 46.238 9.67773 44.7702 9.67773 42.9595V32.4961Z" fill="#C4C4C4"/>
<rect x="51.0762" width="2.68817" height="50" rx="1.34409" fill="#FD3B5B"/>
<path d="M4.83887 20.1309C4.83887 17.9217 6.62973 16.1309 8.83887 16.1309H24.7313V34.4104H8.83887C6.62973 34.4104 4.83887 32.6196 4.83887 30.4104V20.1309Z" fill="#FE3B5B"/>
</svg>
