<svg width="18" height="18" viewBox="0 0 18 18" fill="none" xmlns="http://www.w3.org/2000/svg">
<path d="M16.9141 11.9731C15.7349 11.9731 14.5941 11.7814 13.53 11.4362C13.1945 11.3212 12.8206 11.4075 12.5618 11.6663L11.0567 13.5549C8.34374 12.2607 5.80331 9.81612 4.45161 7.00727L6.32098 5.41591C6.57982 5.14749 6.65651 4.77361 6.55106 4.43809C6.19636 3.37398 6.01422 2.23319 6.01422 1.05405C6.01422 0.536374 5.58282 0.10498 5.06515 0.10498H1.74822C1.23055 0.10498 0.607422 0.335057 0.607422 1.05405C0.607422 9.95992 8.0178 17.3607 16.9141 17.3607C17.5947 17.3607 17.8631 16.7568 17.8631 16.2295V12.9222C17.8631 12.4045 17.4318 11.9731 16.9141 11.9731Z" fill="#128454"/>
</svg>
