<svg width="57" height="49" viewBox="0 0 57 49" fill="none" xmlns="http://www.w3.org/2000/svg">
<g clip-path="url(#clip0_126_251)">
<path fill-rule="evenodd" clip-rule="evenodd" d="M33.0306 4.5625C29.1826 6.57902 26.3333 9.69948 25.2318 13.3645L21.002 12.6875L26.4067 19.4435L34.3377 14.8365L29.8582 14.1152C30.8128 10.98 32.7956 8.05094 35.6008 5.99026C34.8077 5.44565 33.9411 4.95992 33.0306 4.5625Z" fill="white"/>
<path fill-rule="evenodd" clip-rule="evenodd" d="M42.9445 2.13477C40.8296 2.1642 38.8175 2.47331 36.9229 3.01791C37.7159 3.3123 38.4797 3.65084 39.1993 4.04825C40.3596 3.60668 41.608 3.3123 42.9298 3.16511V2.13477H42.9445Z" fill="white"/>
<path fill-rule="evenodd" clip-rule="evenodd" d="M47.439 38.918C44.6632 38.918 42.4014 41.17 42.4014 43.9666C42.4014 46.7485 44.6485 49.0153 47.439 49.0153C50.2295 49.0153 52.4766 46.7633 52.4766 43.9666C52.4766 41.17 50.2148 38.918 47.439 38.918ZM47.439 45.468C46.6165 45.468 45.9409 44.7909 45.9409 43.9666C45.9409 43.1276 46.6165 42.4653 47.439 42.4653C48.2761 42.4653 48.9371 43.1424 48.9371 43.9666C48.9517 44.7909 48.2761 45.468 47.439 45.468Z" fill="white"/>
<path fill-rule="evenodd" clip-rule="evenodd" d="M23.4839 38.918C20.7081 38.918 18.4463 41.17 18.4463 43.9666C18.4463 46.7485 20.6934 49.0153 23.4839 49.0153C26.2744 49.0153 28.5215 46.7633 28.5215 43.9666C28.5068 41.17 26.2597 38.918 23.4839 38.918ZM23.4839 45.468C22.6614 45.468 21.9858 44.7909 21.9858 43.9666C21.9858 43.1276 22.6614 42.4653 23.4839 42.4653C24.3211 42.4653 24.982 43.1424 24.982 43.9666C24.982 44.7909 24.3064 45.468 23.4839 45.468Z" fill="white"/>
<path fill-rule="evenodd" clip-rule="evenodd" d="M31.5479 39.9033H40.2866C40.9182 39.9033 41.4322 40.4185 41.4322 41.0514C41.4322 41.6843 40.9182 42.1995 40.2866 42.1995H31.5479C30.9164 42.1995 30.4023 41.6843 30.4023 41.0514C30.4023 40.4185 30.9164 39.9033 31.5479 39.9033Z" fill="white"/>
<path fill-rule="evenodd" clip-rule="evenodd" d="M29.3301 2.13477C37.9366 2.26724 45.1185 7.0068 47.0425 13.3655L51.287 12.6884L45.8823 19.4445L37.9513 14.8374L42.4308 14.1161C40.7859 8.71422 36.1008 3.91578 29.3448 3.16511V2.13477H29.3301Z" fill="#FF0000"/>
<path fill-rule="evenodd" clip-rule="evenodd" d="M52.8289 7.5362H52.2561C52.168 7.52148 52.0946 7.50676 52.0064 7.50676H50.2146C49.4803 7.50676 48.8928 8.09552 48.8928 8.83148V9.08171C48.8928 9.80294 49.4656 10.3917 50.1853 10.4064H50.1999H52.6527C53.4458 10.4064 54.2389 11.0688 54.0773 11.8342L49.7006 33.0886C49.539 33.854 49.0544 34.5164 48.276 34.5164H47.1451H39.4491H36.8348H24.4684H23.7047H23.4844V34.4722C22.8382 34.3545 22.4416 33.7657 22.2801 33.0886L16.5816 10.4211H18.9608C19.6805 10.4211 20.2827 9.81766 20.2827 9.09643V8.8462C20.2827 8.12496 19.6952 7.52148 18.9608 7.52148H16.0528L13.8938 0H12.6895H11.0152H1.2337C0.558104 0 0 0.559327 0 1.23641V1.60439C0 2.28147 0.558104 2.84079 1.2337 2.84079H11.7349L19.4014 33.3094C19.9595 35.5026 21.252 37.4308 23.5138 37.4308H48.4669C50.7287 37.4308 52.1386 35.532 52.5792 33.3094L56.9559 11.6723C57.3819 9.43497 55.0907 7.5362 52.8289 7.5362Z" fill="white"/>
<path fill-rule="evenodd" clip-rule="evenodd" d="M34.441 33.2797H27.4794C25.4379 33.2797 23.793 31.6311 23.793 29.5852V27.5392C23.793 25.4933 25.4379 23.8447 27.4794 23.8447H34.441C36.4825 23.8447 38.1274 25.4933 38.1274 27.5392V29.5852C38.1274 31.6311 36.4678 33.2797 34.441 33.2797Z" fill="#FF0000"/>
<path fill-rule="evenodd" clip-rule="evenodd" d="M45.7056 33.2799H42.6947C41.1673 33.2799 39.9336 32.0435 39.9336 30.5127V24.1246C39.9336 22.5938 41.1673 21.3574 42.6947 21.3574H45.7056C47.233 21.3574 48.4667 22.5938 48.4667 24.1246V30.5127C48.452 32.0435 47.2183 33.2799 45.7056 33.2799Z" fill="white"/>
</g>
<defs>
<clipPath id="clip0_126_251">
<rect width="57" height="49" fill="white"/>
</clipPath>
</defs>
</svg>
