<svg width="41" height="49" viewBox="0 0 41 49" fill="none" xmlns="http://www.w3.org/2000/svg">
<g clip-path="url(#clip0_126_261)">
<path fill-rule="evenodd" clip-rule="evenodd" d="M6.01803 14.596H34.7767L34.591 12.7142C34.5044 11.9096 33.9225 11.2287 33.1054 11.2287H7.67695C6.85987 11.2287 6.27801 11.8972 6.19135 12.7142L6.01803 14.596ZM32.8083 46.0164H36.2995C37.1166 46.0164 37.8594 45.3479 37.7851 44.5308L35.0986 17.79H5.69615L3.00969 44.5308C2.92303 45.3355 3.67821 46.0164 4.49529 46.0164H7.21889C6.95891 45.7812 15.0307 45.7812 14.7707 46.0164H19.9084C19.1656 45.6326 33.5387 45.6326 32.8083 46.0164ZM25.5784 8.25745C25.6527 7.88605 25.7022 7.51465 25.7022 7.11849C25.7022 4.18444 23.3252 1.7951 20.3788 1.7951C17.4324 1.7951 15.0554 4.17206 15.0554 7.11849C15.0554 7.51465 15.1049 7.88605 15.1792 8.25745H25.5784ZM20.3788 0C24.3033 0 27.4973 3.18166 27.4973 7.11849C27.4973 7.50227 27.4602 7.88605 27.4106 8.25745H33.3035C35.6433 8.25745 37.327 10.1887 37.5622 12.5162L40.7687 44.7413C41.0039 47.0687 38.8498 49 36.5099 49H4.27245C1.93263 49 -0.221487 47.0687 0.0137332 44.7413L3.22015 12.5162C3.45537 10.1887 5.13905 8.25745 7.47887 8.25745H13.3594C13.2975 7.88605 13.2727 7.50227 13.2727 7.11849C13.2727 3.18166 16.4544 0 20.3788 0Z" fill="white"/>
<path fill-rule="evenodd" clip-rule="evenodd" d="M22.9149 37.1529C26.1584 35.4568 28.5601 32.8323 29.4886 29.7497L33.0664 30.3191L28.5106 24.6367L21.8254 28.5117L25.6013 29.1183C24.7966 31.7552 23.1253 34.2188 20.7607 35.952C21.4293 36.4101 22.1473 36.8186 22.9149 37.1529Z" fill="#FF0202"/>
<path fill-rule="evenodd" clip-rule="evenodd" d="M14.5586 39.1953C16.3413 39.1706 18.0374 38.9106 19.6344 38.4525C18.9659 38.2049 18.3221 37.9202 17.7155 37.5859C16.7375 37.9573 15.6852 38.2049 14.571 38.3287V39.1953H14.5586Z" fill="#FF0202"/>
<path fill-rule="evenodd" clip-rule="evenodd" d="M26.0354 39.1956C18.7808 39.0842 12.7269 35.0978 11.1052 29.7497L7.52734 30.3191L12.0832 24.6367L18.7684 28.5117L14.9925 29.1183C16.379 33.6617 20.3283 37.6976 26.023 38.329V39.1956H26.0354Z" fill="#EC7201"/>
</g>
<defs>
<clipPath id="clip0_126_261">
<rect width="40.7797" height="49" fill="white"/>
</clipPath>
</defs>
</svg>
