<svg width="49" height="49" viewBox="0 0 49 49" fill="none" xmlns="http://www.w3.org/2000/svg">
<g clip-path="url(#clip0_126_247)">
<path fill-rule="evenodd" clip-rule="evenodd" d="M19.2382 4.3293V7.11769C18.4395 7.1317 15.8753 8.46284 15.2447 8.82715C14.5301 9.24751 12.4143 10.6767 12.008 11.2652C11.3494 10.9149 9.51383 9.68188 8.77119 9.68188H8.49095C6.93562 9.68188 6.16496 11.7837 5.53442 12.8626C5.11406 13.5912 3.43262 16.1414 3.43262 16.9541V17.4165C3.43262 18.7757 5.73059 19.7845 6.73945 20.317C6.72544 20.7093 6.47322 21.8023 6.40316 22.2647C6.30508 22.9092 6.27706 23.778 6.27706 24.4786C6.27706 25.2913 6.36113 25.9498 6.38915 26.7065C6.40316 27.323 6.72544 28.2198 6.73945 28.7522C5.7446 29.2847 3.43262 30.3076 3.43262 31.6527V32.1011C3.43262 32.7456 4.13322 33.8106 4.42747 34.301C4.63765 34.6513 5.52041 36.0945 5.60448 36.3748C6.19298 35.9824 13.4652 28.528 13.4652 28.514C13.4652 28.5 13.0589 27.0007 12.9888 26.6644C12.8487 26.0059 12.7786 25.3053 12.7786 24.5346C12.7786 18.1031 18.0331 12.8066 24.4506 12.8066C26.3002 12.8066 27.0989 13.1569 28.5141 13.5072L32.9559 9.05134L32.8999 8.2947L29.7612 7.06164C29.7612 6.17888 29.8873 4.38534 29.6491 3.7548C29.3688 3.01217 28.6542 2.26953 27.6594 2.26953H21.396C20.2891 2.26953 19.2382 3.2784 19.2382 4.3293Z" fill="white"/>
<path fill-rule="evenodd" clip-rule="evenodd" d="M42.2462 20.43C42.2462 19.9676 45.553 19.1549 45.553 17.4174V16.955C45.553 16.3525 45.2027 15.8761 44.9785 15.4697C44.5021 15.5818 43.9837 15.8621 43.3952 15.9882C42.8487 16.1003 42.2322 16.2124 41.5736 16.2124H41.4055L39.9763 16.1003C39.5979 16.3665 35.5345 20.486 35.5345 20.5981C35.5345 20.6261 35.9548 22.0974 36.0249 22.4477C36.151 23.0642 36.221 23.8069 36.221 24.5355C36.221 31.0371 30.9525 36.2635 24.4369 36.2635C22.6854 36.2635 21.8307 35.8852 20.5136 35.577L15.6094 40.4531C15.9597 40.5512 16.9405 41.1397 17.4029 41.3079C17.9494 41.5181 18.7901 41.7703 19.2805 41.9945C19.2805 42.9333 19.1264 44.6287 19.4066 45.3293C19.7009 46.0579 20.4155 46.7726 21.3823 46.7726H27.6457C28.6405 46.7726 29.3552 46.0299 29.6354 45.2873C29.8736 44.6708 29.7475 42.8632 29.7475 41.9804C30.378 41.6862 31.2047 41.504 31.8493 41.1818C32.5219 40.8455 33.0964 40.5933 33.7269 40.2149C34.4415 39.7946 36.5854 38.3513 36.9637 37.7628C37.6363 38.1131 39.4578 39.3602 40.2145 39.3602H40.4947C42.0921 39.3602 42.8067 37.2444 43.4793 36.1374C43.8996 35.4368 45.5671 32.8586 45.5671 32.074V31.6256C45.5671 30.2664 43.2691 29.2575 42.2602 28.7251C42.2742 28.2207 42.5545 27.2959 42.5965 26.6793C42.6525 25.9367 42.7086 25.2641 42.7086 24.4654V24.1852C42.7086 23.5406 42.6666 22.798 42.5685 22.2095C42.5264 21.9153 42.2462 20.5561 42.2462 20.486V20.43Z" fill="white"/>
<path fill-rule="evenodd" clip-rule="evenodd" d="M38.2108 5.98186C38.2108 5.02904 40.0183 3.5718 40.6208 2.98329C41.2093 2.39479 42.9188 0.839453 43.2831 0.292985L41.4615 0.0267568C39.668 -0.169411 37.1458 1.28784 36.3191 2.10053C35.3243 3.08137 33.9931 5.02904 33.9931 6.94869V8.30785C33.9931 8.7142 34.1613 8.95241 34.1613 9.38678C34.1613 9.45684 21.0601 22.516 19.799 23.7771C17.3889 26.1872 15.0069 28.5692 12.5968 30.9793C11.3918 32.1843 10.2148 33.3613 9.00972 34.5664C8.23906 35.337 6.10924 37.663 5.40864 38.1394C2.4521 38.1394 0 40.6195 0 43.6041C0 46.4906 2.4521 49.0127 5.29654 49.0127H5.35259C8.39319 49.0127 10.8733 46.5887 10.8733 43.6041C11.3497 42.8895 13.7037 40.7457 14.4744 39.975C15.6794 38.77 16.8564 37.593 18.0615 36.3879C20.4715 33.9779 22.8256 31.6238 25.2356 29.2138C26.4827 27.9667 39.5839 14.8515 39.626 14.8515L40.9291 15.0476L42.0781 15.0196C43.9837 15.0196 46.0014 13.6745 46.9683 12.6796C48.0332 11.5586 48.972 9.69504 48.972 7.50917V7.28498L48.7618 5.74366C48.1873 6.12198 46.6039 7.85947 46.0014 8.46199C45.3148 9.14857 44.0818 10.816 42.8768 10.816C41.8959 10.816 40.7329 9.33073 40.1584 8.75624C39.4858 8.06965 38.2108 7.21492 38.2108 5.98186ZM1.37318 42.8615C1.37318 42.8334 2.43809 40.7036 2.50815 40.6336C2.5642 40.5775 4.65199 39.5266 4.75007 39.5126C5.28253 39.4005 7.30026 39.8069 7.55247 40.0591C7.94481 40.4514 8.93966 41.3482 9.19188 41.7265C9.19188 42.1889 9.40206 43.3379 9.50014 43.8703C9.61224 44.4728 9.09379 45.1735 8.8696 45.6218C8.39319 46.5606 8.6314 46.4205 7.69259 46.8969C7.20217 47.1491 6.54361 47.4294 6.12325 47.7096C5.4787 47.6396 4.72205 47.4294 4.09151 47.3593C3.27881 47.2753 3.16671 46.9109 2.69031 46.4345C2.36803 46.1123 1.70947 45.6639 1.65342 45.1314C1.58336 44.4869 1.35917 43.6602 1.35917 43.0857V42.8615H1.37318Z" fill="#FFE70C"/>
</g>
<defs>
<clipPath id="clip0_126_247">
<rect width="48.972" height="49" fill="white"/>
</clipPath>
</defs>
</svg>
