<svg width="18" height="20" viewBox="0 0 18 20" fill="none" xmlns="http://www.w3.org/2000/svg">
<path d="M15 14.1191C14.24 14.1191 13.56 14.4191 13.04 14.8891L5.91 10.7391C5.96 10.5091 6 10.2791 6 10.0391C6 9.79906 5.96 9.56906 5.91 9.33906L12.96 5.22906C13.5 5.72906 14.21 6.03906 15 6.03906C16.66 6.03906 18 4.69906 18 3.03906C18 1.37906 16.66 0.0390625 15 0.0390625C13.34 0.0390625 12 1.37906 12 3.03906C12 3.27906 12.04 3.50906 12.09 3.73906L5.04 7.84906C4.5 7.34906 3.79 7.03906 3 7.03906C1.34 7.03906 0 8.37906 0 10.0391C0 11.6991 1.34 13.0391 3 13.0391C3.79 13.0391 4.5 12.7291 5.04 12.2291L12.16 16.3891C12.11 16.5991 12.08 16.8191 12.08 17.0391C12.08 18.6491 13.39 19.9591 15 19.9591C16.61 19.9591 17.92 18.6491 17.92 17.0391C17.92 15.4291 16.61 14.1191 15 14.1191Z" fill="black" fill-opacity="0.54"/>
</svg>
