<svg width="69" height="22" viewBox="0 0 69 22" fill="none" xmlns="http://www.w3.org/2000/svg">
<rect x="0.5" y="0.5" width="67.2" height="21" rx="10.5" fill="white" stroke="#C4C4C4"/>
<rect width="22" height="22" rx="11" fill="#0A8C24"/>
<path d="M28.1092 12.9755L26.7694 8.89453H25.368L27.2853 14.2999H28.9331L30.8504 8.89453H29.4567L28.1092 12.9755Z" fill="#666666"/>
<path d="M34.7117 8.89453H31.4007V14.2999H34.7117V13.245H32.7174V12.0592H34.4807V11.0428H32.7174V9.94943H34.7117V8.89453Z" fill="#666666"/>
<path d="M38.4233 10.6501C38.4233 11.0736 38.1923 11.3277 37.6995 11.3277H36.8833V9.98793H37.6995C38.1923 9.98793 38.4233 10.2497 38.4233 10.6501ZM35.5666 8.89453V14.2999H36.8833V12.2594H37.199L38.3232 14.2999H39.8093L38.5619 12.1593C39.3935 11.9129 39.7631 11.2738 39.7631 10.5962C39.7631 9.65683 39.1009 8.89453 37.7765 8.89453H35.5666Z" fill="#666666"/>
<path d="M40.5896 14.2999H41.9063V8.89453H40.5896V14.2999Z" fill="#666666"/>
<path d="M42.8605 14.2999H44.1772V12.1131H45.825V11.089H44.1772V9.94943H46.3794V8.89453H42.8605V14.2999Z" fill="#666666"/>
<path d="M47.0714 14.2999H48.3881V8.89453H47.0714V14.2999Z" fill="#666666"/>
<path d="M52.6533 8.89453H49.3423V14.2999H52.6533V13.245H50.659V12.0592H52.4223V11.0428H50.659V9.94943H52.6533V8.89453Z" fill="#666666"/>
<path d="M55.5333 8.89453H53.5082V14.2999H55.5333C57.2581 14.2999 58.3669 13.1988 58.3669 11.5972C58.3669 9.98793 57.2581 8.89453 55.5333 8.89453ZM54.8249 13.1603V10.0187H55.4486C56.4419 10.0187 57.0271 10.6039 57.0271 11.5972C57.0271 12.5905 56.4419 13.1603 55.4486 13.1603H54.8249Z" fill="#666666"/>
<path d="M10.8007 13.3331L7.65073 10.2301L6.60073 11.2644L10.8007 15.4017L22.0007 4.40347L20.9507 3.36914L10.8007 13.3331Z" fill="white" stroke="white"/>
</svg>
